<?xml version="1.0" encoding="UTF-8" standalone="no"?>
<!DOCTYPE svg PUBLIC "-//W3C//DTD SVG 1.1//EN"
 "http://www.w3.org/Graphics/SVG/1.1/DTD/svg11.dtd">
<!-- Generated by graphviz version 2.36.0 (20140111.2315)
 -->
<!-- Title: %3 Pages: 1 -->
<svg width="1429pt" height="244pt"
 viewBox="0.00 0.00 1429.00 244.00" xmlns="http://www.w3.org/2000/svg" xmlns:xlink="http://www.w3.org/1999/xlink">
<g id="graph0" class="graph" transform="scale(1 1) rotate(0) translate(4 240)">
<title>%3</title>
<polygon fill="white" stroke="none" points="-4,4 -4,-240 1425,-240 1425,4 -4,4"/>
<!-- 51 -->
<g id="node1" class="node"><title>51</title>
<polygon fill="#ff0000" stroke="#ff0000" points="812,-236 620,-236 620,-184 812,-184 812,-236"/>
<text text-anchor="middle" x="716" y="-224" font-family="Arial" font-size="10.00" fill="#ffffff">LiF_Imp_Foam_Simulation:15:&lt;module&gt;</text>
<text text-anchor="middle" x="716" y="-213" font-family="Arial" font-size="10.00" fill="#ffffff">100.00%</text>
<text text-anchor="middle" x="716" y="-202" font-family="Arial" font-size="10.00" fill="#ffffff">(34.11%)</text>
<text text-anchor="middle" x="716" y="-191" font-family="Arial" font-size="10.00" fill="#ffffff">1×</text>
</g>
<!-- 525 -->
<g id="node2" class="node"><title>525</title>
<polygon fill="#0c5686" stroke="#0c5686" points="122.25,-144 -0.25,-144 -0.25,-92 122.25,-92 122.25,-144"/>
<text text-anchor="middle" x="61" y="-132" font-family="Arial" font-size="10.00" fill="#ffffff">e_x:118:find_E_triton_Ar</text>
<text text-anchor="middle" x="61" y="-121" font-family="Arial" font-size="10.00" fill="#ffffff">15.01%</text>
<text text-anchor="middle" x="61" y="-110" font-family="Arial" font-size="10.00" fill="#ffffff">(10.49%)</text>
<text text-anchor="middle" x="61" y="-99" font-family="Arial" font-size="10.00" fill="#ffffff">2236534×</text>
</g>
<!-- 51&#45;&gt;525 -->
<g id="edge1" class="edge"><title>51&#45;&gt;525</title>
<path fill="none" stroke="#0c5686" stroke-width="0.6" d="M619.966,-208.383C483.981,-206.616 242.551,-199.938 159,-175 138.052,-168.747 116.75,-157.309 99.3813,-146.393"/>
<polygon fill="#0c5686" stroke="#0c5686" stroke-width="0.6" points="99.9847,-145.159 95.9613,-144.218 98.5199,-147.463 99.9847,-145.159"/>
<text text-anchor="middle" x="180.5" y="-167" font-family="Arial" font-size="10.00" fill="#0c5686">15.01%</text>
<text text-anchor="middle" x="180.5" y="-156" font-family="Arial" font-size="10.00" fill="#0c5686">2236534×</text>
</g>
<!-- 543 -->
<g id="node3" class="node"><title>543</title>
<polygon fill="#0d0f74" stroke="#0d0f74" points="458,-144 324,-144 324,-92 458,-92 458,-144"/>
<text text-anchor="middle" x="391" y="-132" font-family="Arial" font-size="10.00" fill="#ffffff">e_x:137:find_E_triton_Strut</text>
<text text-anchor="middle" x="391" y="-121" font-family="Arial" font-size="10.00" fill="#ffffff">0.61%</text>
<text text-anchor="middle" x="391" y="-110" font-family="Arial" font-size="10.00" fill="#ffffff">(0.43%)</text>
<text text-anchor="middle" x="391" y="-99" font-family="Arial" font-size="10.00" fill="#ffffff">99782×</text>
</g>
<!-- 51&#45;&gt;543 -->
<g id="edge2" class="edge"><title>51&#45;&gt;543</title>
<path fill="none" stroke="#0d0f74" stroke-width="0.5" d="M619.943,-195.61C590.171,-190.4 557.456,-183.581 528,-175 501.085,-167.159 472.228,-155.83 447.973,-145.411"/>
<polygon fill="#0d0f74" stroke="#0d0f74" stroke-width="0.5" points="448.434,-144.275 444.735,-144.013 447.463,-146.525 448.434,-144.275"/>
<text text-anchor="middle" x="544.5" y="-167" font-family="Arial" font-size="10.00" fill="#0d0f74">0.61%</text>
<text text-anchor="middle" x="544.5" y="-156" font-family="Arial" font-size="10.00" fill="#0d0f74">99782×</text>
</g>
<!-- 560 -->
<g id="node4" class="node"><title>560</title>
<polygon fill="#0d1b77" stroke="#0d1b77" points="554.25,-144 467.75,-144 467.75,-92 554.25,-92 554.25,-144"/>
<text text-anchor="middle" x="511" y="-132" font-family="Arial" font-size="10.00" fill="#ffffff">~:0:&lt;math.sqrt&gt;</text>
<text text-anchor="middle" x="511" y="-121" font-family="Arial" font-size="10.00" fill="#ffffff">3.39%</text>
<text text-anchor="middle" x="511" y="-110" font-family="Arial" font-size="10.00" fill="#ffffff">(3.39%)</text>
<text text-anchor="middle" x="511" y="-99" font-family="Arial" font-size="10.00" fill="#ffffff">3213818×</text>
</g>
<!-- 51&#45;&gt;560 -->
<g id="edge3" class="edge"><title>51&#45;&gt;560</title>
<path fill="none" stroke="#0d1b77" stroke-width="0.5" d="M623.246,-183.964C615.626,-181.189 608.122,-178.198 601,-175 583.372,-167.085 565.065,-156.242 549.6,-146.204"/>
<polygon fill="#0d1b77" stroke="#0d1b77" stroke-width="0.5" points="550.146,-145.098 546.546,-144.209 548.806,-147.149 550.146,-145.098"/>
<text text-anchor="middle" x="622.5" y="-167" font-family="Arial" font-size="10.00" fill="#0d1b77">3.39%</text>
<text text-anchor="middle" x="622.5" y="-156" font-family="Arial" font-size="10.00" fill="#0d1b77">3213817×</text>
</g>
<!-- 776 -->
<g id="node5" class="node"><title>776</title>
<polygon fill="#0d1375" stroke="#0d1375" points="650,-144 564,-144 564,-92 650,-92 650,-144"/>
<text text-anchor="middle" x="607" y="-132" font-family="Arial" font-size="10.00" fill="#ffffff">~:0:&lt;math.cos&gt;</text>
<text text-anchor="middle" x="607" y="-121" font-family="Arial" font-size="10.00" fill="#ffffff">1.43%</text>
<text text-anchor="middle" x="607" y="-110" font-family="Arial" font-size="10.00" fill="#ffffff">(1.43%)</text>
<text text-anchor="middle" x="607" y="-99" font-family="Arial" font-size="10.00" fill="#ffffff">1361556×</text>
</g>
<!-- 51&#45;&gt;776 -->
<g id="edge4" class="edge"><title>51&#45;&gt;776</title>
<path fill="none" stroke="#0d1375" stroke-width="0.5" d="M681.89,-183.637C678.185,-180.761 674.494,-177.842 671,-175 659.914,-165.981 648.062,-155.776 637.607,-146.572"/>
<polygon fill="#0d1375" stroke="#0d1375" stroke-width="0.5" points="638.416,-145.652 634.981,-144.255 636.795,-147.489 638.416,-145.652"/>
<text text-anchor="middle" x="692.5" y="-167" font-family="Arial" font-size="10.00" fill="#0d1375">1.43%</text>
<text text-anchor="middle" x="692.5" y="-156" font-family="Arial" font-size="10.00" fill="#0d1375">1361556×</text>
</g>
<!-- 860 -->
<g id="node6" class="node"><title>860</title>
<polygon fill="#0d267a" stroke="#0d267a" points="947,-144 843,-144 843,-92 947,-92 947,-144"/>
<text text-anchor="middle" x="895" y="-132" font-family="Arial" font-size="10.00" fill="#ffffff">path:43:create_strut</text>
<text text-anchor="middle" x="895" y="-121" font-family="Arial" font-size="10.00" fill="#ffffff">5.74%</text>
<text text-anchor="middle" x="895" y="-110" font-family="Arial" font-size="10.00" fill="#ffffff">(3.33%)</text>
<text text-anchor="middle" x="895" y="-99" font-family="Arial" font-size="10.00" fill="#ffffff">962428×</text>
</g>
<!-- 51&#45;&gt;860 -->
<g id="edge5" class="edge"><title>51&#45;&gt;860</title>
<path fill="none" stroke="#0d267a" stroke-width="0.5" d="M779.054,-183.84C785.506,-180.973 791.919,-178 798,-175 815.656,-166.289 834.52,-155.709 850.873,-146.1"/>
<polygon fill="#0d267a" stroke="#0d267a" stroke-width="0.5" points="851.717,-147.025 854.109,-144.193 850.472,-144.915 851.717,-147.025"/>
<text text-anchor="middle" x="858" y="-167" font-family="Arial" font-size="10.00" fill="#0d267a">5.74%</text>
<text text-anchor="middle" x="858" y="-156" font-family="Arial" font-size="10.00" fill="#0d267a">962428×</text>
</g>
<!-- 888 -->
<g id="node7" class="node"><title>888</title>
<polygon fill="#0d1074" stroke="#0d1074" points="1039.25,-144 956.75,-144 956.75,-92 1039.25,-92 1039.25,-144"/>
<text text-anchor="middle" x="998" y="-132" font-family="Arial" font-size="10.00" fill="#ffffff">~:0:&lt;math.log&gt;</text>
<text text-anchor="middle" x="998" y="-121" font-family="Arial" font-size="10.00" fill="#ffffff">0.85%</text>
<text text-anchor="middle" x="998" y="-110" font-family="Arial" font-size="10.00" fill="#ffffff">(0.85%)</text>
<text text-anchor="middle" x="998" y="-99" font-family="Arial" font-size="10.00" fill="#ffffff">766962×</text>
</g>
<!-- 51&#45;&gt;888 -->
<g id="edge6" class="edge"><title>51&#45;&gt;888</title>
<path fill="none" stroke="#0d1074" stroke-width="0.5" d="M812.072,-192.308C834.271,-187.531 857.638,-181.751 879,-175 912.22,-164.501 919.594,-159.082 951,-144 951.802,-143.615 952.61,-143.223 953.422,-142.827"/>
<polygon fill="#0d1074" stroke="#0d1074" stroke-width="0.5" points="953.979,-143.918 956.576,-141.272 952.895,-141.721 953.979,-143.918"/>
<text text-anchor="middle" x="951" y="-167" font-family="Arial" font-size="10.00" fill="#0d1074">0.85%</text>
<text text-anchor="middle" x="951" y="-156" font-family="Arial" font-size="10.00" fill="#0d1074">766958×</text>
</g>
<!-- 994 -->
<g id="node8" class="node"><title>994</title>
<polygon fill="#0d3d80" stroke="#0d3d80" points="254,-144 132,-144 132,-92 254,-92 254,-144"/>
<text text-anchor="middle" x="193" y="-132" font-family="Arial" font-size="10.00" fill="#ffffff">e_x:110:find_x_triton_Ar</text>
<text text-anchor="middle" x="193" y="-121" font-family="Arial" font-size="10.00" fill="#ffffff">10.42%</text>
<text text-anchor="middle" x="193" y="-110" font-family="Arial" font-size="10.00" fill="#ffffff">(8.07%)</text>
<text text-anchor="middle" x="193" y="-99" font-family="Arial" font-size="10.00" fill="#ffffff">2236534×</text>
</g>
<!-- 51&#45;&gt;994 -->
<g id="edge7" class="edge"><title>51&#45;&gt;994</title>
<path fill="none" stroke="#0d3d80" stroke-width="0.5" d="M619.786,-207.402C485.428,-204.413 254.341,-196.228 222,-175 212.296,-168.631 205.656,-157.933 201.207,-147.584"/>
<polygon fill="#0d3d80" stroke="#0d3d80" stroke-width="0.5" points="202.239,-146.871 199.78,-144.095 199.971,-147.798 202.239,-146.871"/>
<text text-anchor="middle" x="243.5" y="-167" font-family="Arial" font-size="10.00" fill="#0d3d80">10.42%</text>
<text text-anchor="middle" x="243.5" y="-156" font-family="Arial" font-size="10.00" fill="#0d3d80">2236534×</text>
</g>
<!-- 1026 -->
<g id="node9" class="node"><title>1026</title>
<polygon fill="#0d3e81" stroke="#0d3e81" points="772.25,-144 659.75,-144 659.75,-92 772.25,-92 772.25,-144"/>
<text text-anchor="middle" x="716" y="-132" font-family="Arial" font-size="10.00" fill="#ffffff">path:51:create_pocket</text>
<text text-anchor="middle" x="716" y="-121" font-family="Arial" font-size="10.00" fill="#ffffff">10.69%</text>
<text text-anchor="middle" x="716" y="-110" font-family="Arial" font-size="10.00" fill="#ffffff">(6.79%)</text>
<text text-anchor="middle" x="716" y="-99" font-family="Arial" font-size="10.00" fill="#ffffff">3014252×</text>
</g>
<!-- 51&#45;&gt;1026 -->
<g id="edge8" class="edge"><title>51&#45;&gt;1026</title>
<path fill="none" stroke="#0d3e81" stroke-width="0.5" d="M716,-183.93C716,-172.712 716,-159.422 716,-147.798"/>
<polygon fill="#0d3e81" stroke="#0d3e81" stroke-width="0.5" points="717.225,-147.748 716,-144.248 714.775,-147.748 717.225,-147.748"/>
<text text-anchor="middle" x="737.5" y="-167" font-family="Arial" font-size="10.00" fill="#0d3e81">10.69%</text>
<text text-anchor="middle" x="737.5" y="-156" font-family="Arial" font-size="10.00" fill="#0d3e81">3014252×</text>
</g>
<!-- 1048 -->
<g id="node10" class="node"><title>1048</title>
<polygon fill="#0d1e78" stroke="#0d1e78" points="1227.25,-144 1048.75,-144 1048.75,-92 1227.25,-92 1227.25,-144"/>
<text text-anchor="middle" x="1138" y="-132" font-family="Arial" font-size="10.00" fill="#ffffff">~:0:&lt;method &#39;append&#39; of &#39;list&#39; objects&gt;</text>
<text text-anchor="middle" x="1138" y="-121" font-family="Arial" font-size="10.00" fill="#ffffff">4.13%</text>
<text text-anchor="middle" x="1138" y="-110" font-family="Arial" font-size="10.00" fill="#ffffff">(4.13%)</text>
<text text-anchor="middle" x="1138" y="-99" font-family="Arial" font-size="10.00" fill="#ffffff">4033062×</text>
</g>
<!-- 51&#45;&gt;1048 -->
<g id="edge9" class="edge"><title>51&#45;&gt;1048</title>
<path fill="none" stroke="#0d1e78" stroke-width="0.5" d="M812.224,-200.669C860.57,-195.362 919.818,-187.147 972,-175 1004.74,-167.38 1040.14,-155.904 1069.81,-145.32"/>
<polygon fill="#0d1e78" stroke="#0d1e78" stroke-width="0.5" points="1070.52,-146.368 1073.4,-144.034 1069.69,-144.061 1070.52,-146.368"/>
<text text-anchor="middle" x="1067.5" y="-167" font-family="Arial" font-size="10.00" fill="#0d1e78">4.12%</text>
<text text-anchor="middle" x="1067.5" y="-156" font-family="Arial" font-size="10.00" fill="#0d1e78">4021850×</text>
</g>
<!-- 1222 -->
<g id="node11" class="node"><title>1222</title>
<polygon fill="#0d2a7b" stroke="#0d2a7b" points="237.25,-52 148.75,-52 148.75,-0 237.25,-0 237.25,-52"/>
<text text-anchor="middle" x="193" y="-40" font-family="Arial" font-size="10.00" fill="#ffffff">~:0:&lt;math.fabs&gt;</text>
<text text-anchor="middle" x="193" y="-29" font-family="Arial" font-size="10.00" fill="#ffffff">6.52%</text>
<text text-anchor="middle" x="193" y="-18" font-family="Arial" font-size="10.00" fill="#ffffff">(6.52%)</text>
<text text-anchor="middle" x="193" y="-7" font-family="Arial" font-size="10.00" fill="#ffffff">6275110×</text>
</g>
<!-- 51&#45;&gt;1222 -->
<g id="edge10" class="edge"><title>51&#45;&gt;1222</title>
<path fill="none" stroke="#0d1375" stroke-width="0.5" d="M619.886,-206.351C506.376,-201.291 326.567,-186.597 276,-144 257.296,-128.243 268.706,-113.989 258,-92 250.822,-77.2582 249.157,-73.0153 238,-61 235.989,-58.8339 233.826,-56.7059 231.576,-54.6371"/>
<polygon fill="#0d1375" stroke="#0d1375" stroke-width="0.5" points="232.321,-53.6606 228.897,-52.237 230.686,-55.4851 232.321,-53.6606"/>
<text text-anchor="middle" x="297.5" y="-121" font-family="Arial" font-size="10.00" fill="#0d1375">1.56%</text>
<text text-anchor="middle" x="297.5" y="-110" font-family="Arial" font-size="10.00" fill="#0d1375">1533916×</text>
</g>
<!-- 1600 -->
<g id="node12" class="node"><title>1600</title>
<polygon fill="#0d4e84" stroke="#0d4e84" points="837.25,-52 744.75,-52 744.75,-0 837.25,-0 837.25,-52"/>
<text text-anchor="middle" x="791" y="-40" font-family="Arial" font-size="10.00" fill="#ffffff">PM_RNG:40:New</text>
<text text-anchor="middle" x="791" y="-29" font-family="Arial" font-size="10.00" fill="#ffffff">13.61%</text>
<text text-anchor="middle" x="791" y="-18" font-family="Arial" font-size="10.00" fill="#ffffff">(13.61%)</text>
<text text-anchor="middle" x="791" y="-7" font-family="Arial" font-size="10.00" fill="#ffffff">10744956×</text>
</g>
<!-- 51&#45;&gt;1600 -->
<g id="edge11" class="edge"><title>51&#45;&gt;1600</title>
<path fill="none" stroke="#0d2d7c" stroke-width="0.5" d="M752.741,-183.697C755.708,-180.939 758.515,-178.028 761,-175 788.729,-141.211 793.064,-88.6605 792.716,-56.1166"/>
<polygon fill="#0d2d7c" stroke="#0d2d7c" stroke-width="0.5" points="793.935,-55.7287 792.652,-52.2496 791.485,-55.7695 793.935,-55.7287"/>
<text text-anchor="middle" x="812.5" y="-121" font-family="Arial" font-size="10.00" fill="#0d2d7c">7.29%</text>
<text text-anchor="middle" x="812.5" y="-110" font-family="Arial" font-size="10.00" fill="#0d2d7c">5805848×</text>
</g>
<!-- 1635 -->
<g id="node13" class="node"><title>1635</title>
<polygon fill="#0d1174" stroke="#0d1174" points="1319.25,-144 1236.75,-144 1236.75,-92 1319.25,-92 1319.25,-144"/>
<text text-anchor="middle" x="1278" y="-132" font-family="Arial" font-size="10.00" fill="#ffffff">~:0:&lt;math.sin&gt;</text>
<text text-anchor="middle" x="1278" y="-121" font-family="Arial" font-size="10.00" fill="#ffffff">1.13%</text>
<text text-anchor="middle" x="1278" y="-110" font-family="Arial" font-size="10.00" fill="#ffffff">(1.13%)</text>
<text text-anchor="middle" x="1278" y="-99" font-family="Arial" font-size="10.00" fill="#ffffff">1062210×</text>
</g>
<!-- 51&#45;&gt;1635 -->
<g id="edge12" class="edge"><title>51&#45;&gt;1635</title>
<path fill="none" stroke="#0d1174" stroke-width="0.5" d="M812.363,-203.654C888.353,-198.623 996.851,-189.631 1091,-175 1153.97,-165.214 1171.21,-166.055 1231,-144 1231.68,-143.748 1232.37,-143.488 1233.06,-143.221"/>
<polygon fill="#0d1174" stroke="#0d1174" stroke-width="0.5" points="1233.72,-144.275 1236.5,-141.825 1232.8,-142.004 1233.72,-144.275"/>
<text text-anchor="middle" x="1224.5" y="-167" font-family="Arial" font-size="10.00" fill="#0d1174">1.13%</text>
<text text-anchor="middle" x="1224.5" y="-156" font-family="Arial" font-size="10.00" fill="#0d1174">1062210×</text>
</g>
<!-- 1641 -->
<g id="node14" class="node"><title>1641</title>
<polygon fill="#0d1174" stroke="#0d1174" points="1421,-144 1329,-144 1329,-92 1421,-92 1421,-144"/>
<text text-anchor="middle" x="1375" y="-132" font-family="Arial" font-size="10.00" fill="#ffffff">~:0:&lt;math.acos&gt;</text>
<text text-anchor="middle" x="1375" y="-121" font-family="Arial" font-size="10.00" fill="#ffffff">1.06%</text>
<text text-anchor="middle" x="1375" y="-110" font-family="Arial" font-size="10.00" fill="#ffffff">(1.06%)</text>
<text text-anchor="middle" x="1375" y="-99" font-family="Arial" font-size="10.00" fill="#ffffff">962428×</text>
</g>
<!-- 51&#45;&gt;1641 -->
<g id="edge13" class="edge"><title>51&#45;&gt;1641</title>
<path fill="none" stroke="#0d1174" stroke-width="0.5" d="M812.27,-206.621C942.538,-202.751 1167.87,-193.583 1248,-175 1274.85,-168.774 1303.06,-156.933 1326.05,-145.737"/>
<polygon fill="#0d1174" stroke="#0d1174" stroke-width="0.5" points="1326.8,-146.732 1329.4,-144.09 1325.72,-144.533 1326.8,-146.732"/>
<text text-anchor="middle" x="1328" y="-167" font-family="Arial" font-size="10.00" fill="#0d1174">1.06%</text>
<text text-anchor="middle" x="1328" y="-156" font-family="Arial" font-size="10.00" fill="#0d1174">962428×</text>
</g>
<!-- 525&#45;&gt;1222 -->
<g id="edge15" class="edge"><title>525&#45;&gt;1222</title>
<path fill="none" stroke="#0d1676" stroke-width="0.5" d="M97.7694,-91.93C114.932,-80.228 135.4,-66.2728 152.954,-54.3042"/>
<polygon fill="#0d1676" stroke="#0d1676" stroke-width="0.5" points="153.768,-55.2316 155.97,-52.2477 152.388,-53.2073 153.768,-55.2316"/>
<text text-anchor="middle" x="164.5" y="-75" font-family="Arial" font-size="10.00" fill="#0d1676">2.31%</text>
<text text-anchor="middle" x="164.5" y="-64" font-family="Arial" font-size="10.00" fill="#0d1676">2209262×</text>
</g>
<!-- 522 -->
<g id="node15" class="node"><title>522</title>
<polygon fill="#0d1776" stroke="#0d1776" points="90.25,-52 31.75,-52 31.75,-0 90.25,-0 90.25,-52"/>
<text text-anchor="middle" x="61" y="-40" font-family="Arial" font-size="10.00" fill="#ffffff">~:0:&lt;len&gt;</text>
<text text-anchor="middle" x="61" y="-29" font-family="Arial" font-size="10.00" fill="#ffffff">2.43%</text>
<text text-anchor="middle" x="61" y="-18" font-family="Arial" font-size="10.00" fill="#ffffff">(2.43%)</text>
<text text-anchor="middle" x="61" y="-7" font-family="Arial" font-size="10.00" fill="#ffffff">2455600×</text>
</g>
<!-- 525&#45;&gt;522 -->
<g id="edge14" class="edge"><title>525&#45;&gt;522</title>
<path fill="none" stroke="#0d1676" stroke-width="0.5" d="M61,-91.93C61,-80.7116 61,-67.4223 61,-55.7978"/>
<polygon fill="#0d1676" stroke="#0d1676" stroke-width="0.5" points="62.2251,-55.7477 61,-52.2477 59.7751,-55.7478 62.2251,-55.7477"/>
<text text-anchor="middle" x="82.5" y="-75" font-family="Arial" font-size="10.00" fill="#0d1676">2.21%</text>
<text text-anchor="middle" x="82.5" y="-64" font-family="Arial" font-size="10.00" fill="#0d1676">2236534×</text>
</g>
<!-- 860&#45;&gt;1600 -->
<g id="edge16" class="edge"><title>860&#45;&gt;1600</title>
<path fill="none" stroke="#0d1776" stroke-width="0.5" d="M866.03,-91.93C852.62,-80.3248 836.648,-66.5033 822.895,-54.6013"/>
<polygon fill="#0d1776" stroke="#0d1776" stroke-width="0.5" points="823.623,-53.6118 820.175,-52.2477 822.02,-55.4644 823.623,-53.6118"/>
<text text-anchor="middle" x="877.5" y="-75" font-family="Arial" font-size="10.00" fill="#0d1776">2.41%</text>
<text text-anchor="middle" x="877.5" y="-64" font-family="Arial" font-size="10.00" fill="#0d1776">1924856×</text>
</g>
<!-- 994&#45;&gt;1222 -->
<g id="edge17" class="edge"><title>994&#45;&gt;1222</title>
<path fill="none" stroke="#0d1776" stroke-width="0.5" d="M193,-91.93C193,-80.7116 193,-67.4223 193,-55.7978"/>
<polygon fill="#0d1776" stroke="#0d1776" stroke-width="0.5" points="194.225,-55.7477 193,-52.2477 191.775,-55.7478 194.225,-55.7477"/>
<text text-anchor="middle" x="214.5" y="-75" font-family="Arial" font-size="10.00" fill="#0d1776">2.35%</text>
<text text-anchor="middle" x="214.5" y="-64" font-family="Arial" font-size="10.00" fill="#0d1776">2236534×</text>
</g>
<!-- 1026&#45;&gt;1600 -->
<g id="edge18" class="edge"><title>1026&#45;&gt;1600</title>
<path fill="none" stroke="#0d1d78" stroke-width="0.5" d="M723.786,-91.8972C727.812,-81.5846 733.484,-69.9821 741,-61 742.76,-58.8967 744.681,-56.8687 746.713,-54.9223"/>
<polygon fill="#0d1d78" stroke="#0d1d78" stroke-width="0.5" points="747.798,-55.5893 749.547,-52.3195 746.14,-53.7849 747.798,-55.5893"/>
<text text-anchor="middle" x="762.5" y="-75" font-family="Arial" font-size="10.00" fill="#0d1d78">3.90%</text>
<text text-anchor="middle" x="762.5" y="-64" font-family="Arial" font-size="10.00" fill="#0d1d78">3014252×</text>
</g>
</g>
</svg>
