<?xml version="1.0" encoding="UTF-8" standalone="no"?>
<!DOCTYPE svg PUBLIC "-//W3C//DTD SVG 1.1//EN"
 "http://www.w3.org/Graphics/SVG/1.1/DTD/svg11.dtd">
<!-- Generated by graphviz version 2.36.0 (20140111.2315)
 -->
<!-- Title: %3 Pages: 1 -->
<svg width="1239pt" height="520pt"
 viewBox="0.00 0.00 1239.00 520.00" xmlns="http://www.w3.org/2000/svg" xmlns:xlink="http://www.w3.org/1999/xlink">
<g id="graph0" class="graph" transform="scale(1 1) rotate(0) translate(4 516)">
<title>%3</title>
<polygon fill="white" stroke="none" points="-4,4 -4,-516 1235,-516 1235,4 -4,4"/>
<!-- 2 -->
<g id="node1" class="node"><title>2</title>
<polygon fill="#0d1174" stroke="#0d1174" points="141,-52 37,-52 37,-0 141,-0 141,-52"/>
<text text-anchor="middle" x="89" y="-40" font-family="Arial" font-size="10.00" fill="#ffffff">particle:130:__init__</text>
<text text-anchor="middle" x="89" y="-29" font-family="Arial" font-size="10.00" fill="#ffffff">1.07%</text>
<text text-anchor="middle" x="89" y="-18" font-family="Arial" font-size="10.00" fill="#ffffff">(0.76%)</text>
<text text-anchor="middle" x="89" y="-7" font-family="Arial" font-size="10.00" fill="#ffffff">199894×</text>
</g>
<!-- 3 -->
<g id="node2" class="node"><title>3</title>
<polygon fill="#0d1676" stroke="#0d1676" points="178.25,-144 -0.25,-144 -0.25,-92 178.25,-92 178.25,-144"/>
<text text-anchor="middle" x="89" y="-132" font-family="Arial" font-size="10.00" fill="#ffffff">particle:111:create_reaction_products</text>
<text text-anchor="middle" x="89" y="-121" font-family="Arial" font-size="10.00" fill="#ffffff">2.25%</text>
<text text-anchor="middle" x="89" y="-110" font-family="Arial" font-size="10.00" fill="#ffffff">(0.82%)</text>
<text text-anchor="middle" x="89" y="-99" font-family="Arial" font-size="10.00" fill="#ffffff">99947×</text>
</g>
<!-- 3&#45;&gt;2 -->
<g id="edge1" class="edge"><title>3&#45;&gt;2</title>
<path fill="none" stroke="#0d1174" stroke-width="0.5" d="M89,-91.93C89,-80.7116 89,-67.4223 89,-55.7978"/>
<polygon fill="#0d1174" stroke="#0d1174" stroke-width="0.5" points="90.2251,-55.7477 89,-52.2477 87.7751,-55.7478 90.2251,-55.7477"/>
<text text-anchor="middle" x="108" y="-75" font-family="Arial" font-size="10.00" fill="#0d1174">1.07%</text>
<text text-anchor="middle" x="108" y="-64" font-family="Arial" font-size="10.00" fill="#0d1174">199894×</text>
</g>
<!-- 93 -->
<g id="node3" class="node"><title>93</title>
<polygon fill="#0d1575" stroke="#0d1575" points="908,-236 720,-236 720,-184 908,-184 908,-236"/>
<text text-anchor="middle" x="814" y="-224" font-family="Arial" font-size="10.00" fill="#ffffff">history:198:transport_reaction_products</text>
<text text-anchor="middle" x="814" y="-213" font-family="Arial" font-size="10.00" fill="#ffffff">2.01%</text>
<text text-anchor="middle" x="814" y="-202" font-family="Arial" font-size="10.00" fill="#ffffff">(0.79%)</text>
<text text-anchor="middle" x="814" y="-191" font-family="Arial" font-size="10.00" fill="#ffffff">99947×</text>
</g>
<!-- 287 -->
<g id="node4" class="node"><title>287</title>
<polygon fill="#0d1976" stroke="#0d1976" points="690,-144 536,-144 536,-92 690,-92 690,-144"/>
<text text-anchor="middle" x="613" y="-132" font-family="Arial" font-size="10.00" fill="#ffffff">particle:187:retrieve_res_energy</text>
<text text-anchor="middle" x="613" y="-121" font-family="Arial" font-size="10.00" fill="#ffffff">2.92%</text>
<text text-anchor="middle" x="613" y="-110" font-family="Arial" font-size="10.00" fill="#ffffff">(1.10%)</text>
<text text-anchor="middle" x="613" y="-99" font-family="Arial" font-size="10.00" fill="#ffffff">220984×</text>
</g>
<!-- 93&#45;&gt;287 -->
<g id="edge2" class="edge"><title>93&#45;&gt;287</title>
<path fill="none" stroke="#0d0e73" stroke-width="0.5" d="M781.024,-183.958C765.804,-173.289 747.119,-161.394 729,-153 717.773,-147.799 705.565,-143.19 693.423,-139.177"/>
<polygon fill="#0d0e73" stroke="#0d0e73" stroke-width="0.5" points="693.709,-137.982 690.001,-138.061 692.949,-140.311 693.709,-137.982"/>
<text text-anchor="middle" x="784.5" y="-167" font-family="Arial" font-size="10.00" fill="#0d0e73">0.27%</text>
<text text-anchor="middle" x="784.5" y="-156" font-family="Arial" font-size="10.00" fill="#0d0e73">21090×</text>
</g>
<!-- 1396 -->
<g id="node5" class="node"><title>1396</title>
<polygon fill="#0ba947" stroke="#0ba947" points="861.25,-144 766.75,-144 766.75,-92 861.25,-92 861.25,-144"/>
<text text-anchor="middle" x="814" y="-132" font-family="Arial" font-size="10.00" fill="#ffffff">history:37:random</text>
<text text-anchor="middle" x="814" y="-121" font-family="Arial" font-size="10.00" fill="#ffffff">40.52%</text>
<text text-anchor="middle" x="814" y="-110" font-family="Arial" font-size="10.00" fill="#ffffff">(25.28%)</text>
<text text-anchor="middle" x="814" y="-99" font-family="Arial" font-size="10.00" fill="#ffffff">8112510×</text>
</g>
<!-- 93&#45;&gt;1396 -->
<g id="edge3" class="edge"><title>93&#45;&gt;1396</title>
<path fill="none" stroke="#0d0e73" stroke-width="0.5" d="M814,-183.93C814,-172.712 814,-159.422 814,-147.798"/>
<polygon fill="#0d0e73" stroke="#0d0e73" stroke-width="0.5" points="815.225,-147.748 814,-144.248 812.775,-147.748 815.225,-147.748"/>
<text text-anchor="middle" x="830.5" y="-167" font-family="Arial" font-size="10.00" fill="#0d0e73">0.29%</text>
<text text-anchor="middle" x="830.5" y="-156" font-family="Arial" font-size="10.00" fill="#0d0e73">63270×</text>
</g>
<!-- 1566 -->
<g id="node8" class="node"><title>1566</title>
<polygon fill="#0d1475" stroke="#0d1475" points="405,-52 287,-52 287,-0 405,-0 405,-52"/>
<text text-anchor="middle" x="346" y="-40" font-family="Arial" font-size="10.00" fill="#ffffff">particle:58:get_material</text>
<text text-anchor="middle" x="346" y="-29" font-family="Arial" font-size="10.00" fill="#ffffff">1.74%</text>
<text text-anchor="middle" x="346" y="-18" font-family="Arial" font-size="10.00" fill="#ffffff">(1.74%)</text>
<text text-anchor="middle" x="346" y="-7" font-family="Arial" font-size="10.00" fill="#ffffff">1026989×</text>
</g>
<!-- 287&#45;&gt;1566 -->
<g id="edge14" class="edge"><title>287&#45;&gt;1566</title>
<path fill="none" stroke="#0d0e73" stroke-width="0.5" d="M538.626,-91.93C497.817,-78.1744 447.772,-61.3052 408.921,-48.2092"/>
<polygon fill="#0d0e73" stroke="#0d0e73" stroke-width="0.5" points="408.904,-46.911 405.196,-46.9538 408.122,-49.2327 408.904,-46.911"/>
<text text-anchor="middle" x="531" y="-75" font-family="Arial" font-size="10.00" fill="#0d0e73">0.37%</text>
<text text-anchor="middle" x="531" y="-64" font-family="Arial" font-size="10.00" fill="#0d0e73">220984×</text>
</g>
<!-- 286 -->
<g id="node13" class="node"><title>286</title>
<polygon fill="#0d1375" stroke="#0d1375" points="676,-52 550,-52 550,-0 676,-0 676,-52"/>
<text text-anchor="middle" x="613" y="-40" font-family="Arial" font-size="10.00" fill="#ffffff">foam:354:get_res_energy</text>
<text text-anchor="middle" x="613" y="-29" font-family="Arial" font-size="10.00" fill="#ffffff">1.44%</text>
<text text-anchor="middle" x="613" y="-18" font-family="Arial" font-size="10.00" fill="#ffffff">(1.01%)</text>
<text text-anchor="middle" x="613" y="-7" font-family="Arial" font-size="10.00" fill="#ffffff">220984×</text>
</g>
<!-- 287&#45;&gt;286 -->
<g id="edge13" class="edge"><title>287&#45;&gt;286</title>
<path fill="none" stroke="#0d1375" stroke-width="0.5" d="M613,-91.93C613,-80.7116 613,-67.4223 613,-55.7978"/>
<polygon fill="#0d1375" stroke="#0d1375" stroke-width="0.5" points="614.225,-55.7477 613,-52.2477 611.775,-55.7478 614.225,-55.7477"/>
<text text-anchor="middle" x="632" y="-75" font-family="Arial" font-size="10.00" fill="#0d1375">1.44%</text>
<text text-anchor="middle" x="632" y="-64" font-family="Arial" font-size="10.00" fill="#0d1375">220984×</text>
</g>
<!-- 1458 -->
<g id="node19" class="node"><title>1458</title>
<polygon fill="#0c5786" stroke="#0c5786" points="857.5,-52 770.5,-52 770.5,-0 857.5,-0 857.5,-52"/>
<text text-anchor="middle" x="814" y="-40" font-family="Arial" font-size="10.00" fill="#ffffff">Random:12:rand</text>
<text text-anchor="middle" x="814" y="-29" font-family="Arial" font-size="10.00" fill="#ffffff">15.24%</text>
<text text-anchor="middle" x="814" y="-18" font-family="Arial" font-size="10.00" fill="#ffffff">(15.24%)</text>
<text text-anchor="middle" x="814" y="-7" font-family="Arial" font-size="10.00" fill="#ffffff">8112510×</text>
</g>
<!-- 1396&#45;&gt;1458 -->
<g id="edge24" class="edge"><title>1396&#45;&gt;1458</title>
<path fill="none" stroke="#0c5786" stroke-width="0.61" d="M814,-91.93C814,-80.905 814,-67.8799 814,-56.4005"/>
<polygon fill="#0c5786" stroke="#0c5786" stroke-width="0.61" points="815.365,-56.1477 814,-52.2477 812.635,-56.1477 815.365,-56.1477"/>
<text text-anchor="middle" x="835.5" y="-75" font-family="Arial" font-size="10.00" fill="#0c5786">15.24%</text>
<text text-anchor="middle" x="835.5" y="-64" font-family="Arial" font-size="10.00" fill="#0c5786">8112510×</text>
</g>
<!-- 237 -->
<g id="node6" class="node"><title>237</title>
<polygon fill="#0d4282" stroke="#0d4282" points="290.25,-236 159.75,-236 159.75,-184 290.25,-184 290.25,-236"/>
<text text-anchor="middle" x="225" y="-224" font-family="Arial" font-size="10.00" fill="#ffffff">particle:81:interaction_test</text>
<text text-anchor="middle" x="225" y="-213" font-family="Arial" font-size="10.00" fill="#ffffff">11.51%</text>
<text text-anchor="middle" x="225" y="-202" font-family="Arial" font-size="10.00" fill="#ffffff">(6.77%)</text>
<text text-anchor="middle" x="225" y="-191" font-family="Arial" font-size="10.00" fill="#ffffff">1569879×</text>
</g>
<!-- 237&#45;&gt;3 -->
<g id="edge4" class="edge"><title>237&#45;&gt;3</title>
<path fill="none" stroke="#0d1676" stroke-width="0.5" d="M171.995,-183.979C166.838,-181.106 161.759,-178.093 157,-175 144.114,-166.626 130.868,-156.198 119.529,-146.619"/>
<polygon fill="#0d1676" stroke="#0d1676" stroke-width="0.5" points="120.148,-145.537 116.688,-144.203 118.561,-147.404 120.148,-145.537"/>
<text text-anchor="middle" x="173.5" y="-167" font-family="Arial" font-size="10.00" fill="#0d1676">2.25%</text>
<text text-anchor="middle" x="173.5" y="-156" font-family="Arial" font-size="10.00" fill="#0d1676">99947×</text>
</g>
<!-- 1034 -->
<g id="node7" class="node"><title>1034</title>
<polygon fill="#0d1274" stroke="#0d1274" points="338,-144 244,-144 244,-92 338,-92 338,-144"/>
<text text-anchor="middle" x="291" y="-132" font-family="Arial" font-size="10.00" fill="#ffffff">foam:290:get_mfp</text>
<text text-anchor="middle" x="291" y="-121" font-family="Arial" font-size="10.00" fill="#ffffff">1.16%</text>
<text text-anchor="middle" x="291" y="-110" font-family="Arial" font-size="10.00" fill="#ffffff">(1.16%)</text>
<text text-anchor="middle" x="291" y="-99" font-family="Arial" font-size="10.00" fill="#ffffff">784915×</text>
</g>
<!-- 237&#45;&gt;1034 -->
<g id="edge5" class="edge"><title>237&#45;&gt;1034</title>
<path fill="none" stroke="#0d1274" stroke-width="0.5" d="M243.385,-183.93C251.753,-172.518 261.693,-158.963 270.321,-147.198"/>
<polygon fill="#0d1274" stroke="#0d1274" stroke-width="0.5" points="271.403,-147.795 272.485,-144.248 269.427,-146.346 271.403,-147.795"/>
<text text-anchor="middle" x="285" y="-167" font-family="Arial" font-size="10.00" fill="#0d1274">1.16%</text>
<text text-anchor="middle" x="285" y="-156" font-family="Arial" font-size="10.00" fill="#0d1274">784915×</text>
</g>
<!-- 237&#45;&gt;1566 -->
<g id="edge6" class="edge"><title>237&#45;&gt;1566</title>
<path fill="none" stroke="#0d1274" stroke-width="0.5" d="M209.798,-183.729C196.85,-158.589 182.966,-119.847 201,-92 219.229,-63.8523 252.839,-47.7802 283.114,-38.6622"/>
<polygon fill="#0d1274" stroke="#0d1274" stroke-width="0.5" points="283.775,-39.7451 286.788,-37.5844 283.085,-37.3942 283.775,-39.7451"/>
<text text-anchor="middle" x="220" y="-121" font-family="Arial" font-size="10.00" fill="#0d1274">1.34%</text>
<text text-anchor="middle" x="220" y="-110" font-family="Arial" font-size="10.00" fill="#0d1274">784915×</text>
</g>
<!-- 238 -->
<g id="node9" class="node"><title>238</title>
<polygon fill="#f92801" stroke="#f92801" points="776,-328 638,-328 638,-276 776,-276 776,-328"/>
<text text-anchor="middle" x="707" y="-316" font-family="Arial" font-size="10.00" fill="#ffffff">history:45:transport_neutron</text>
<text text-anchor="middle" x="707" y="-305" font-family="Arial" font-size="10.00" fill="#ffffff">96.07%</text>
<text text-anchor="middle" x="707" y="-294" font-family="Arial" font-size="10.00" fill="#ffffff">(29.45%)</text>
<text text-anchor="middle" x="707" y="-283" font-family="Arial" font-size="10.00" fill="#ffffff">100000×</text>
</g>
<!-- 238&#45;&gt;93 -->
<g id="edge7" class="edge"><title>238&#45;&gt;93</title>
<path fill="none" stroke="#0d1575" stroke-width="0.5" d="M736.805,-275.93C750.603,-264.325 767.035,-250.503 781.185,-238.601"/>
<polygon fill="#0d1575" stroke="#0d1575" stroke-width="0.5" points="782.093,-239.438 783.983,-236.248 780.516,-237.563 782.093,-239.438"/>
<text text-anchor="middle" x="790.5" y="-259" font-family="Arial" font-size="10.00" fill="#0d1575">2.01%</text>
<text text-anchor="middle" x="790.5" y="-248" font-family="Arial" font-size="10.00" fill="#0d1575">99947×</text>
</g>
<!-- 238&#45;&gt;1396 -->
<g id="edge12" class="edge"><title>238&#45;&gt;1396</title>
<path fill="none" stroke="#0ba74e" stroke-width="1.57" d="M776.305,-277.517C777.884,-277.004 779.451,-276.498 781,-276 838.954,-257.367 875.781,-284.929 912,-236 925.75,-217.424 922.929,-204.364 912,-184 902.198,-165.737 884.758,-151.737 867.279,-141.49"/>
<polygon fill="#0ba74e" stroke="#0ba74e" stroke-width="1.57" points="867.933,-139.328 861.361,-138.159 865.769,-143.171 867.933,-139.328"/>
<text text-anchor="middle" x="943.5" y="-213" font-family="Arial" font-size="10.00" fill="#0ba74e">39.25%</text>
<text text-anchor="middle" x="943.5" y="-202" font-family="Arial" font-size="10.00" fill="#0ba74e">7849346×</text>
</g>
<!-- 238&#45;&gt;237 -->
<g id="edge8" class="edge"><title>238&#45;&gt;237</title>
<path fill="none" stroke="#0d4282" stroke-width="0.5" d="M637.718,-300.02C557.624,-297.776 431.594,-290.491 391,-267 380.536,-260.945 385.097,-251.65 375,-245 351.098,-229.256 320.915,-220.736 293.901,-216.15"/>
<polygon fill="#0d4282" stroke="#0d4282" stroke-width="0.5" points="293.934,-214.914 290.282,-215.556 293.537,-217.332 293.934,-214.914"/>
<text text-anchor="middle" x="412.5" y="-259" font-family="Arial" font-size="10.00" fill="#0d4282">11.51%</text>
<text text-anchor="middle" x="412.5" y="-248" font-family="Arial" font-size="10.00" fill="#0d4282">1569879×</text>
</g>
<!-- 975 -->
<g id="node10" class="node"><title>975</title>
<polygon fill="#0d2f7d" stroke="#0d2f7d" points="710.25,-236 489.75,-236 489.75,-184 710.25,-184 710.25,-236"/>
<text text-anchor="middle" x="600" y="-224" font-family="Arial" font-size="10.00" fill="#ffffff">history:142:reaction_products_first_path_length</text>
<text text-anchor="middle" x="600" y="-213" font-family="Arial" font-size="10.00" fill="#ffffff">7.67%</text>
<text text-anchor="middle" x="600" y="-202" font-family="Arial" font-size="10.00" fill="#ffffff">(3.72%)</text>
<text text-anchor="middle" x="600" y="-191" font-family="Arial" font-size="10.00" fill="#ffffff">99947×</text>
</g>
<!-- 238&#45;&gt;975 -->
<g id="edge9" class="edge"><title>238&#45;&gt;975</title>
<path fill="none" stroke="#0d2f7d" stroke-width="0.5" d="M677.195,-275.93C663.397,-264.325 646.965,-250.503 632.815,-238.601"/>
<polygon fill="#0d2f7d" stroke="#0d2f7d" stroke-width="0.5" points="633.484,-237.563 630.017,-236.248 631.907,-239.438 633.484,-237.563"/>
<text text-anchor="middle" x="683.5" y="-259" font-family="Arial" font-size="10.00" fill="#0d2f7d">7.67%</text>
<text text-anchor="middle" x="683.5" y="-248" font-family="Arial" font-size="10.00" fill="#0d2f7d">99947×</text>
</g>
<!-- 1072 -->
<g id="node11" class="node"><title>1072</title>
<polygon fill="#0d1976" stroke="#0d1976" points="526.25,-144 347.75,-144 347.75,-92 526.25,-92 526.25,-144"/>
<text text-anchor="middle" x="437" y="-132" font-family="Arial" font-size="10.00" fill="#ffffff">~:0:&lt;method &#39;append&#39; of &#39;list&#39; objects&gt;</text>
<text text-anchor="middle" x="437" y="-121" font-family="Arial" font-size="10.00" fill="#ffffff">2.81%</text>
<text text-anchor="middle" x="437" y="-110" font-family="Arial" font-size="10.00" fill="#ffffff">(2.81%)</text>
<text text-anchor="middle" x="437" y="-99" font-family="Arial" font-size="10.00" fill="#ffffff">1913957×</text>
</g>
<!-- 238&#45;&gt;1072 -->
<g id="edge10" class="edge"><title>238&#45;&gt;1072</title>
<path fill="none" stroke="#0d1676" stroke-width="0.5" d="M637.822,-293.406C567.832,-284.16 466.545,-265.953 442,-236 422.103,-211.719 424.389,-174.165 429.336,-148.182"/>
<polygon fill="#0d1676" stroke="#0d1676" stroke-width="0.5" points="430.6,-148.107 430.084,-144.435 428.198,-147.628 430.6,-148.107"/>
<text text-anchor="middle" x="463.5" y="-213" font-family="Arial" font-size="10.00" fill="#0d1676">2.29%</text>
<text text-anchor="middle" x="463.5" y="-202" font-family="Arial" font-size="10.00" fill="#0d1676">1569879×</text>
</g>
<!-- 1126 -->
<g id="node12" class="node"><title>1126</title>
<polygon fill="#0d1e78" stroke="#0d1e78" points="1101.5,-236 978.5,-236 978.5,-184 1101.5,-184 1101.5,-236"/>
<text text-anchor="middle" x="1040" y="-224" font-family="Arial" font-size="10.00" fill="#ffffff">foam:168:new_thickness</text>
<text text-anchor="middle" x="1040" y="-213" font-family="Arial" font-size="10.00" fill="#ffffff">3.92%</text>
<text text-anchor="middle" x="1040" y="-202" font-family="Arial" font-size="10.00" fill="#ffffff">(3.92%)</text>
<text text-anchor="middle" x="1040" y="-191" font-family="Arial" font-size="10.00" fill="#ffffff">2375884×</text>
</g>
<!-- 238&#45;&gt;1126 -->
<g id="edge11" class="edge"><title>238&#45;&gt;1126</title>
<path fill="none" stroke="#0d1d78" stroke-width="0.5" d="M776.174,-277.008C777.793,-276.648 779.403,-276.311 781,-276 847.424,-263.055 867.79,-285.093 933,-267 955.727,-260.694 979.142,-249.117 998.251,-238.119"/>
<polygon fill="#0d1d78" stroke="#0d1d78" stroke-width="0.5" points="999.113,-239.035 1001.52,-236.217 997.882,-236.917 999.113,-239.035"/>
<text text-anchor="middle" x="1006.5" y="-259" font-family="Arial" font-size="10.00" fill="#0d1d78">3.89%</text>
<text text-anchor="middle" x="1006.5" y="-248" font-family="Arial" font-size="10.00" fill="#0d1d78">2354794×</text>
</g>
<!-- 975&#45;&gt;287 -->
<g id="edge16" class="edge"><title>975&#45;&gt;287</title>
<path fill="none" stroke="#0d1876" stroke-width="0.5" d="M603.621,-183.93C605.242,-172.712 607.161,-159.422 608.84,-147.798"/>
<polygon fill="#0d1876" stroke="#0d1876" stroke-width="0.5" points="610.065,-147.887 609.353,-144.248 607.64,-147.537 610.065,-147.887"/>
<text text-anchor="middle" x="628" y="-167" font-family="Arial" font-size="10.00" fill="#0d1876">2.65%</text>
<text text-anchor="middle" x="628" y="-156" font-family="Arial" font-size="10.00" fill="#0d1876">199894×</text>
</g>
<!-- 975&#45;&gt;1396 -->
<g id="edge18" class="edge"><title>975&#45;&gt;1396</title>
<path fill="none" stroke="#0d1174" stroke-width="0.5" d="M637.396,-183.92C656.744,-171.26 678.469,-157.622 689,-153 712.457,-142.704 739.787,-134.839 762.9,-129.28"/>
<polygon fill="#0d1174" stroke="#0d1174" stroke-width="0.5" points="763.45,-130.409 766.572,-128.408 762.883,-128.025 763.45,-130.409"/>
<text text-anchor="middle" x="708" y="-167" font-family="Arial" font-size="10.00" fill="#0d1174">0.98%</text>
<text text-anchor="middle" x="708" y="-156" font-family="Arial" font-size="10.00" fill="#0d1174">199894×</text>
</g>
<!-- 975&#45;&gt;1072 -->
<g id="edge17" class="edge"><title>975&#45;&gt;1072</title>
<path fill="none" stroke="#0d0e73" stroke-width="0.5" d="M554.595,-183.93C533.137,-172.082 507.495,-157.924 485.64,-145.856"/>
<polygon fill="#0d0e73" stroke="#0d0e73" stroke-width="0.5" points="486.1,-144.711 482.444,-144.092 484.915,-146.856 486.1,-144.711"/>
<text text-anchor="middle" x="557" y="-167" font-family="Arial" font-size="10.00" fill="#0d0e73">0.32%</text>
<text text-anchor="middle" x="557" y="-156" font-family="Arial" font-size="10.00" fill="#0d0e73">199894×</text>
</g>
<!-- 439 -->
<g id="node14" class="node"><title>439</title>
<polygon fill="#ff0000" stroke="#ff0000" points="861.5,-512 676.5,-512 676.5,-460 861.5,-460 861.5,-512"/>
<text text-anchor="middle" x="769" y="-500" font-family="Arial" font-size="10.00" fill="#ffffff">Li_Imp_Strut_Optimization:8:&lt;module&gt;</text>
<text text-anchor="middle" x="769" y="-489" font-family="Arial" font-size="10.00" fill="#ffffff">100.00%</text>
<text text-anchor="middle" x="769" y="-478" font-family="Arial" font-size="10.00" fill="#ffffff">(0.30%)</text>
<text text-anchor="middle" x="769" y="-467" font-family="Arial" font-size="10.00" fill="#ffffff">1×</text>
</g>
<!-- 1076 -->
<g id="node15" class="node"><title>1076</title>
<polygon fill="#fe0700" stroke="#fe0700" points="847.5,-420 690.5,-420 690.5,-368 847.5,-368 847.5,-420"/>
<text text-anchor="middle" x="769" y="-408" font-family="Arial" font-size="10.00" fill="#ffffff">run_manager:57:execute_history</text>
<text text-anchor="middle" x="769" y="-397" font-family="Arial" font-size="10.00" fill="#ffffff">99.31%</text>
<text text-anchor="middle" x="769" y="-386" font-family="Arial" font-size="10.00" fill="#ffffff">(0.92%)</text>
<text text-anchor="middle" x="769" y="-375" font-family="Arial" font-size="10.00" fill="#ffffff">100000×</text>
</g>
<!-- 439&#45;&gt;1076 -->
<g id="edge15" class="edge"><title>439&#45;&gt;1076</title>
<path fill="none" stroke="#fe0700" stroke-width="3.97" d="M769,-459.93C769,-450.743 769,-440.166 769,-430.253"/>
<polygon fill="#fe0700" stroke="#fe0700" stroke-width="3.97" points="772.5,-430.248 769,-420.248 765.5,-430.248 772.5,-430.248"/>
<text text-anchor="middle" x="788" y="-443" font-family="Arial" font-size="10.00" fill="#fe0700">99.31%</text>
<text text-anchor="middle" x="788" y="-432" font-family="Arial" font-size="10.00" fill="#fe0700">100000×</text>
</g>
<!-- 1076&#45;&gt;238 -->
<g id="edge19" class="edge"><title>1076&#45;&gt;238</title>
<path fill="none" stroke="#f92801" stroke-width="3.84" d="M751.73,-367.93C745.001,-358.162 737.19,-346.825 729.997,-336.383"/>
<polygon fill="#f92801" stroke="#f92801" stroke-width="3.84" points="732.777,-334.372 724.393,-328.248 727.128,-338.264 732.777,-334.372"/>
<text text-anchor="middle" x="765" y="-351" font-family="Arial" font-size="10.00" fill="#f92801">96.07%</text>
<text text-anchor="middle" x="765" y="-340" font-family="Arial" font-size="10.00" fill="#f92801">100000×</text>
</g>
<!-- 1076&#45;&gt;1072 -->
<g id="edge20" class="edge"><title>1076&#45;&gt;1072</title>
<path fill="none" stroke="#0d0d73" stroke-width="0.5" d="M690.054,-381.512C576.937,-363.255 377.638,-323.777 335,-267 304.074,-225.818 355.416,-176.223 395.805,-146.179"/>
<polygon fill="#0d0d73" stroke="#0d0d73" stroke-width="0.5" points="396.603,-147.113 398.693,-144.05 395.149,-145.141 396.603,-147.113"/>
<text text-anchor="middle" x="354" y="-259" font-family="Arial" font-size="10.00" fill="#0d0d73">0.15%</text>
<text text-anchor="middle" x="354" y="-248" font-family="Arial" font-size="10.00" fill="#0d0d73">112240×</text>
</g>
<!-- 1105 -->
<g id="node16" class="node"><title>1105</title>
<polygon fill="#0d1375" stroke="#0d1375" points="924.25,-328 785.75,-328 785.75,-276 924.25,-276 924.25,-328"/>
<text text-anchor="middle" x="855" y="-316" font-family="Arial" font-size="10.00" fill="#ffffff">Random:36:initialize_history</text>
<text text-anchor="middle" x="855" y="-305" font-family="Arial" font-size="10.00" fill="#ffffff">1.56%</text>
<text text-anchor="middle" x="855" y="-294" font-family="Arial" font-size="10.00" fill="#ffffff">(0.33%)</text>
<text text-anchor="middle" x="855" y="-283" font-family="Arial" font-size="10.00" fill="#ffffff">100000×</text>
</g>
<!-- 1076&#45;&gt;1105 -->
<g id="edge21" class="edge"><title>1076&#45;&gt;1105</title>
<path fill="none" stroke="#0d1375" stroke-width="0.5" d="M792.956,-367.93C803.953,-356.421 817.032,-342.734 828.341,-330.899"/>
<polygon fill="#0d1375" stroke="#0d1375" stroke-width="0.5" points="829.342,-331.625 830.874,-328.248 827.571,-329.932 829.342,-331.625"/>
<text text-anchor="middle" x="842" y="-351" font-family="Arial" font-size="10.00" fill="#0d1375">1.56%</text>
<text text-anchor="middle" x="842" y="-340" font-family="Arial" font-size="10.00" fill="#0d1375">100000×</text>
</g>
<!-- 1398 -->
<g id="node17" class="node"><title>1398</title>
<polygon fill="#0d0f74" stroke="#0d0f74" points="1030,-328 934,-328 934,-276 1030,-276 1030,-328"/>
<text text-anchor="middle" x="982" y="-316" font-family="Arial" font-size="10.00" fill="#ffffff">history:28:__init__</text>
<text text-anchor="middle" x="982" y="-305" font-family="Arial" font-size="10.00" fill="#ffffff">0.59%</text>
<text text-anchor="middle" x="982" y="-294" font-family="Arial" font-size="10.00" fill="#ffffff">(0.36%)</text>
<text text-anchor="middle" x="982" y="-283" font-family="Arial" font-size="10.00" fill="#ffffff">100000×</text>
</g>
<!-- 1076&#45;&gt;1398 -->
<g id="edge22" class="edge"><title>1076&#45;&gt;1398</title>
<path fill="none" stroke="#0d0f74" stroke-width="0.5" d="M840.355,-367.981C848.037,-365.052 855.707,-362.027 863,-359 885.42,-349.694 909.741,-338.459 930.518,-328.503"/>
<polygon fill="#0d0f74" stroke="#0d0f74" stroke-width="0.5" points="931.197,-329.536 933.821,-326.916 930.136,-327.327 931.197,-329.536"/>
<text text-anchor="middle" x="932" y="-351" font-family="Arial" font-size="10.00" fill="#0d0f74">0.59%</text>
<text text-anchor="middle" x="932" y="-340" font-family="Arial" font-size="10.00" fill="#0d0f74">100000×</text>
</g>
<!-- 1104 -->
<g id="node18" class="node"><title>1104</title>
<polygon fill="#0d1274" stroke="#0d1274" points="1230.25,-236 1111.75,-236 1111.75,-184 1230.25,-184 1230.25,-236"/>
<text text-anchor="middle" x="1171" y="-224" font-family="Arial" font-size="10.00" fill="#ffffff">Random:16:skip_ahead</text>
<text text-anchor="middle" x="1171" y="-213" font-family="Arial" font-size="10.00" fill="#ffffff">1.23%</text>
<text text-anchor="middle" x="1171" y="-202" font-family="Arial" font-size="10.00" fill="#ffffff">(1.23%)</text>
<text text-anchor="middle" x="1171" y="-191" font-family="Arial" font-size="10.00" fill="#ffffff">100000×</text>
</g>
<!-- 1105&#45;&gt;1104 -->
<g id="edge23" class="edge"><title>1105&#45;&gt;1104</title>
<path fill="none" stroke="#0d1274" stroke-width="0.5" d="M924.578,-276.915C926.061,-276.59 927.536,-276.284 929,-276 963.088,-269.384 1052.01,-277.838 1085,-267 1103.88,-260.796 1122.64,-249.364 1137.8,-238.439"/>
<polygon fill="#0d1274" stroke="#0d1274" stroke-width="0.5" points="1138.67,-239.316 1140.78,-236.263 1137.23,-237.337 1138.67,-239.316"/>
<text text-anchor="middle" x="1147" y="-259" font-family="Arial" font-size="10.00" fill="#0d1274">1.23%</text>
<text text-anchor="middle" x="1147" y="-248" font-family="Arial" font-size="10.00" fill="#0d1274">100000×</text>
</g>
</g>
</svg>
